<svg xmlns="http://www.w3.org/2000/svg" xmlns:xlink="http://www.w3.org/1999/xlink" viewBox="0 0 20.97 20.97"><defs><style>.cls-1{fill:#d1d3d4;}.cls-2{fill:url(#linear-gradient);}.cls-3{fill:url(#linear-gradient-2);}.cls-4{fill:url(#linear-gradient-3);}.cls-5{fill:url(#linear-gradient-4);}.cls-6{fill:#231f20;}</style><linearGradient id="linear-gradient" x1="-41.56" y1="162.58" x2="-41.56" y2="160.91" gradientTransform="translate(56.28 -147.03)" gradientUnits="userSpaceOnUse"><stop offset="0.25" stop-color="#231f20"/><stop offset="0.5" stop-color="#fff"/><stop offset="0.75" stop-color="#231f20"/></linearGradient><linearGradient id="linear-gradient-2" x1="-41.56" y1="150.56" x2="-41.56" y2="148.9" gradientTransform="translate(47.8 -143.51)" xlink:href="#linear-gradient"/><linearGradient id="linear-gradient-3" x1="-49.92" y1="-149.98" x2="-49.92" y2="-151.65" gradientTransform="translate(-144.56 64.65) rotate(90)" xlink:href="#linear-gradient"/><linearGradient id="linear-gradient-4" x1="-49.92" y1="-162" x2="-49.92" y2="-163.66" gradientTransform="translate(-148.07 56.17) rotate(90)" xlink:href="#linear-gradient"/></defs><title>left_logo</title><g id="Layer_2" data-name="Layer 2"><g id="Layer_1-2" data-name="Layer 1"><rect class="cls-1" x="3.98" y="4.18" width="12.69" height="12.69" transform="translate(-4.42 10.38) rotate(-45)"/><rect class="cls-2" x="6.7" y="13.95" width="16.07" height="1.58" transform="translate(-6.1 14.73) rotate(-45)"/><rect class="cls-3" x="-1.8" y="5.45" width="16.07" height="1.58" transform="translate(-2.58 6.24) rotate(-45)"/><rect class="cls-4" x="5.45" y="6.7" width="1.58" height="16.07" transform="translate(-8.59 8.73) rotate(-45)"/><rect class="cls-5" x="13.95" y="-1.8" width="1.58" height="16.07" transform="translate(-0.1 12.25) rotate(-45)"/><path class="cls-6" d="M8.58,11.87h-1V10.69H6.53a2,2,0,0,0,.11.62,3.08,3.08,0,0,0,.27.57l-.79.53a3.61,3.61,0,0,1-.43-.88,3.09,3.09,0,0,1-.16-1s0-.07,0-.11,0-.08,0-.11a2.89,2.89,0,0,1,.19-.84,2.07,2.07,0,0,1,.47-.72,1.8,1.8,0,0,1,.85-.5,4.22,4.22,0,0,1,1-.11h.48L8.74,9H8a1.56,1.56,0,0,0-.82.18,1.2,1.2,0,0,0-.39.38l-.08.17-.06.15h1V9.09h1Z"/><path class="cls-6" d="M10.18,11.87h-1V8.14h1Zm1.1-2.09,1.07,2.09H11.19l-1-2.05.88-1.68h1.1Z"/><path class="cls-6" d="M15.13,9h-1v2.89h-1V9h-1l.23-.84h2.6Z"/></g></g></svg>